<svg width="62" height="62" viewBox="0 0 62 62" fill="none" xmlns="http://www.w3.org/2000/svg">
<g clip-path="url(#clip0_501_61)">
<path d="M60.8663 55.4002L48.8664 43.3951C57.8453 31.3961 55.397 14.39 43.398 5.41109C31.399 -3.56785 14.393 -1.11959 5.41402 10.8794C-3.56492 22.8784 -1.11666 39.8845 10.8823 48.8634C20.5209 56.0761 33.7593 56.0761 43.398 48.8634L55.4031 60.8685C56.9117 62.3771 59.3577 62.3771 60.8662 60.8685C62.3749 59.3598 62.3749 56.9139 60.8662 55.4053L60.8663 55.4002ZM27.2402 46.5464C16.5761 46.5464 7.9312 37.9015 7.9312 27.2373C7.9312 16.5732 16.5761 7.92827 27.2402 7.92827C37.9044 7.92827 46.5493 16.5732 46.5493 27.2373C46.5379 37.8966 37.8997 46.535 27.2402 46.5464Z" fill="white" fill-opacity="0.13"/>
</g>
<defs>
<clipPath id="clip0_501_61">
<rect width="62" height="62" fill="white"/>
</clipPath>
</defs>
</svg>
